<?xml version="1.0" encoding="utf-8"?>
<!-- Generator: Adobe Illustrator 27.4.0, SVG Export Plug-In . SVG Version: 6.00 Build 0)  -->
<svg version="1.1" id="图层_1" xmlns="http://www.w3.org/2000/svg" xmlns:xlink="http://www.w3.org/1999/xlink" x="0px" y="0px"
	 viewBox="0 0 287 841.9" style="enable-background:new 0 0 287 841.9;" xml:space="preserve">
<g id="图层_1_00000046321377240142979470000004564211685197324673_">
	<g>
		
			<rect x="65" y="404.7" style="fill:#9FD9F6;stroke:#000000;stroke-width:0.5;stroke-linecap:round;stroke-miterlimit:10;" width="170.3" height="25.9"/>
	</g>
	<line style="fill:none;stroke:#E60012;stroke-width:3;stroke-miterlimit:10;" x1="85.3" y1="195" x2="85.3" y2="394.8"/>
	<g id="_x30_4-取电">
	</g>
	<g id="_x30_3-部件">
	</g>
	<g id="_x30_2-线路">
	</g>
	<polyline style="fill:#DCDDDD;" points="44,41.9 260,41.9 260,88.1 44,88.1 	"/>
	<line style="fill:none;stroke:#000000;stroke-width:0.5;" x1="44" y1="47.6" x2="260" y2="47.6"/>
	<line style="fill:none;stroke:#000000;" x1="44" y1="41.6" x2="260" y2="41.6"/>
	<line style="fill:none;stroke:#000000;stroke-width:0.5;" x1="44" y1="58.9" x2="260" y2="58.9"/>
	<line style="fill:none;stroke:#000000;stroke-width:0.5;" x1="44" y1="70.6" x2="260" y2="70.6"/>
	<line style="fill:none;stroke:#000000;stroke-width:0.5;" x1="44" y1="82.3" x2="260" y2="82.3"/>
	<line style="fill:none;stroke:#000000;" x1="44" y1="88.1" x2="260" y2="88.1"/>
	<text transform="matrix(1 0 0 1 262.8125 49.6298)" style="font-family:'FZLTHJW--GB1-0'; font-size:6px;">30</text>
	<text transform="matrix(1 0 0 1 262.8125 60.7958)" style="font-family:'FZLTHJW--GB1-0'; font-size:6px;">IG1</text>
	<text transform="matrix(1 0 0 1 262.8125 72.4208)" style="font-family:'FZLTHJW--GB1-0'; font-size:6px;">IG3</text>
	<text transform="matrix(1 0 0 1 262.8125 83.9247)" style="font-family:'FZLTHJW--GB1-0'; font-size:6px;">ACC</text>
	<text transform="matrix(1 0 0 1 35.0342 49.7119)" style="font-family:'FZLTHJW--GB1-0'; font-size:6px;">30</text>
	<text transform="matrix(1 0 0 1 31.8701 60.8779)" style="font-family:'FZLTHJW--GB1-0'; font-size:6px;">IG1</text>
	<text transform="matrix(1 0 0 1 31.8701 72.5029)" style="font-family:'FZLTHJW--GB1-0'; font-size:6px;">IG3</text>
	<text transform="matrix(1 0 0 1 28.378 84.0029)" style="font-family:'FZLTHJW--GB1-0'; font-size:6px;">ACC</text>
	<path style="fill:none;stroke:#000000;stroke-width:0.5;" d="M260,59.3"/>
	<path style="fill:none;stroke:#000000;stroke-width:0.5;" d="M44,59.3"/>
	<g id="选配信息">
	</g>
	<g id="REB_x2C_A3_2_">
		<rect x="59.4" y="133" style="fill:#DCDDDD;stroke:#000000;stroke-width:0.5;stroke-miterlimit:10;" width="55.3" height="50.3"/>
	</g>
	<g id="RF22_x2C_A3_2_">
		<g>
			<g>
				<path style="fill:none;stroke:#000000;stroke-width:0.75;" d="M85.3,163.4c-1.2,0-2.2,1-2.2,2.2s1,2.2,2.2,2.2s2.2-1,2.2-2.2
					S86.5,163.4,85.3,163.4"/>
			</g>
			<g>
				<path style="fill:none;stroke:#000000;stroke-width:0.75;" d="M85.3,147.6c-1.2,0-2.2,1-2.2,2.1c0,1.2,1,2.2,2.2,2.2
					s2.2-0.9,2.2-2.2C87.5,148.6,86.5,147.6,85.3,147.6"/>
			</g>
			<g>
				<path style="fill:none;stroke:#000000;stroke-width:0.75;" d="M83.8,151.3c-0.1,2.5,0.2,3.2,1.3,4.3c1.2,1.2,2.4,1.7,2.8,3.7
					c0.4,1.6-0.1,3.5-1.1,4.5"/>
			</g>
			<g>
				<path style="fill:none;stroke:#000000;stroke-width:0.75;" d="M86.7,163.9c0.2-0.8,0-2.9-0.6-3.7c-0.9-1.2-2.7-2.1-3.3-4
					c-0.9-2.8,0.7-4.6,1.1-5"/>
			</g>
		</g>
	</g>
	<g>
		<g>
			<polyline style="fill:none;stroke:#000000;stroke-width:0.6;stroke-linejoin:round;" points="85.3,168 85.3,170.9 85.3,183.2 			
				"/>
		</g>
	</g>
	<g>
		<g>
			<polyline style="fill:none;stroke:#000000;stroke-width:0.5;stroke-linejoin:round;" points="85.3,147.8 85.3,135.4 85.3,46.7 
							"/>
		</g>
	</g>
	<g id="_x30_2-上针脚_5_">
		<line style="fill:none;stroke:#000000;stroke-width:0.6;stroke-linejoin:round;" x1="85.3" y1="191.6" x2="85.3" y2="183.4"/>
		<path style="fill:#FFFFFF;" d="M85.2,194.7c-1.7,0-3-1.4-3-3c0-1.8,1.4-3.2,3-3.2c1.8,0,3.2,1.4,3.2,3.2
			C88.4,193.3,87,194.7,85.2,194.7"/>
		<path d="M85.2,195.3c-2,0-3.7-1.6-3.7-3.7c0-2.2,1.7-3.8,3.7-3.8v1.2c-1.4,0-2.5,1.1-2.5,2.7c0,1.3,1.1,2.5,2.5,2.5V195.3z
			 M85.2,187.8v1.2c1.5,0,2.7,1.1,2.7,2.7c0,1.3-1.1,2.5-2.7,2.5v1.1c2.2,0,3.8-1.6,3.8-3.7C89,189.5,87.4,187.8,85.2,187.8"/>
		<rect x="81.2" y="187.4" style="fill:#FFFFFF;" width="8.1" height="4.1"/>
		<rect x="84.8" y="188.3" width="1" height="4.2"/>
		
			<rect x="84.8" y="188.3" style="fill:none;stroke:#000000;stroke-width:0.72;stroke-linecap:round;stroke-linejoin:round;" width="1" height="4.2"/>
	</g>
	<g>
		<path style="fill:#070102;stroke:#FFFFFF;stroke-width:0.5;stroke-linecap:round;" d="M82.4,48.2c0-1.7,1.3-2.9,2.8-2.9
			c1.6,0,2.9,1.2,2.9,2.9c0,1.5-1.3,2.7-2.9,2.7C83.7,51,82.4,49.7,82.4,48.2z"/>
		<g>
			<path style="fill:none;stroke:#FFFFFF;stroke-width:1.0001;" d="M82.4,48.2c0-1.7,1.3-2.9,2.8-2.9c1.6,0,2.9,1.2,2.9,2.9
				c0,1.5-1.3,2.7-2.9,2.7C83.7,51,82.4,49.7,82.4,48.2"/>
		</g>
	</g>
	<line style="fill:none;stroke:#89438F;stroke-width:3;" x1="206.5" y1="193.2" x2="206.5" y2="393.8"/>
	<path style="fill:none;stroke:#000000;stroke-width:0.5;stroke-linecap:round;stroke-linejoin:round;" d="M144,189.8l0.7-2.1
		c0,0,0.7-2.5,4-2.6h27.1l0,0l2.3-2.7l2.3,2.7c0.1,0,0.1,0,0.2,0h26.6h0.2c3.3,0.1,4,2.6,4,2.6l0.7,2.1"/>
	<line style="fill:none;stroke:#000000;stroke-width:3;stroke-miterlimit:10;" x1="85.5" y1="441.9" x2="85.5" y2="758.3"/>
	<g id="_x30_2-上针脚">
		<line style="fill:none;stroke:#000000;stroke-width:0.6;stroke-linejoin:round;" x1="85.5" y1="438.8" x2="85.5" y2="430.6"/>
		<path style="fill:#FFFFFF;" d="M85.4,441.9c-1.7,0-3-1.4-3-3c0-1.8,1.4-3.2,3-3.2c1.8,0,3.2,1.4,3.2,3.2
			C88.6,440.5,87.2,441.9,85.4,441.9"/>
		<path d="M85.4,442.5c-2,0-3.7-1.6-3.7-3.7c0-2.2,1.7-3.8,3.7-3.8v1.2c-1.4,0-2.5,1.1-2.5,2.7c0,1.3,1.1,2.5,2.5,2.5V442.5z
			 M85.4,435v1.2c1.5,0,2.7,1.1,2.7,2.7c0,1.3-1.1,2.5-2.7,2.5v1.1c2.2,0,3.8-1.6,3.8-3.7S87.6,435,85.4,435"/>
		<rect x="81.4" y="434.6" style="fill:#FFFFFF;" width="8.1" height="4.1"/>
		<rect x="85" y="435.5" width="1" height="4.2"/>
		
			<rect x="85" y="435.5" style="fill:none;stroke:#000000;stroke-width:0.72;stroke-linecap:round;stroke-linejoin:round;" width="1" height="4.2"/>
	</g>
	<g id="_x30_2-上针脚_4_">
		<line style="fill:none;stroke:#000000;stroke-width:0.6;stroke-linejoin:round;" x1="85.5" y1="396.5" x2="85.5" y2="404.7"/>
		<path style="fill:#FFFFFF;" d="M85.4,393.4c-1.7,0-3,1.4-3,3c0,1.8,1.4,3.2,3,3.2c1.8,0,3.2-1.4,3.2-3.2
			C88.6,394.8,87.2,393.4,85.4,393.4"/>
		<path d="M85.4,393.9c-1.4,0-2.5,1.2-2.5,2.5c0,1.6,1.1,2.7,2.5,2.7v1.2c-2,0-3.7-1.6-3.7-3.8c0-2.1,1.7-3.7,3.7-3.7V393.9z
			 M85.4,400.3c2.2,0,3.8-1.7,3.8-3.8c0-2.1-1.6-3.7-3.8-3.7v1.1c1.6,0,2.7,1.2,2.7,2.5c0,1.6-1.2,2.7-2.7,2.7V400.3"/>
		<rect x="81.4" y="396.6" style="fill:#FFFFFF;" width="8.1" height="4.1"/>
		<rect x="85" y="395.6" width="1" height="4.2"/>
		
			<rect x="85" y="395.6" style="fill:none;stroke:#000000;stroke-width:0.72;stroke-linecap:round;stroke-linejoin:round;" width="1" height="4.2"/>
	</g>
	<line style="fill:none;stroke:#F29C97;stroke-width:3;" x1="149.8" y1="193.2" x2="149.8" y2="393.8"/>
	<line style="fill:none;stroke:#89438F;stroke-width:3;" x1="206.5" y1="439.7" x2="206.5" y2="730.6"/>
	<line style="fill:none;stroke:#F29C97;stroke-width:3;" x1="149.8" y1="439.7" x2="149.8" y2="730.6"/>
	<g id="_x30_2-上针脚_2_">
		<line style="fill:none;stroke:#000000;stroke-width:0.6;stroke-linejoin:round;" x1="149.8" y1="396.5" x2="149.8" y2="404.7"/>
		<path style="fill:#FFFFFF;" d="M149.7,393.4c-1.7,0-3,1.4-3,3c0,1.8,1.4,3.2,3,3.2c1.8,0,3.2-1.4,3.2-3.2
			C152.9,394.8,151.5,393.4,149.7,393.4"/>
		<path d="M149.7,393.9c-1.4,0-2.5,1.2-2.5,2.5c0,1.6,1.1,2.7,2.5,2.7v1.2c-2,0-3.7-1.6-3.7-3.8c0-2.1,1.7-3.7,3.7-3.7V393.9z
			 M149.7,400.3c2.2,0,3.8-1.7,3.8-3.8c0-2.1-1.6-3.7-3.8-3.7v1.1c1.6,0,2.7,1.2,2.7,2.5c0,1.6-1.2,2.7-2.7,2.7V400.3"/>
		<rect x="145.7" y="396.6" style="fill:#FFFFFF;" width="8.1" height="4.1"/>
		<rect x="149.3" y="395.6" width="1" height="4.2"/>
		
			<rect x="149.3" y="395.6" style="fill:none;stroke:#000000;stroke-width:0.72;stroke-linecap:round;stroke-linejoin:round;" width="1" height="4.2"/>
	</g>
	<g id="_x30_2-上针脚_1_">
		<line style="fill:none;stroke:#000000;stroke-width:0.6;stroke-linejoin:round;" x1="206.5" y1="396.5" x2="206.5" y2="404.7"/>
		<path style="fill:#FFFFFF;" d="M206.4,393.4c-1.7,0-3,1.4-3,3c0,1.8,1.4,3.2,3,3.2c1.8,0,3.2-1.4,3.2-3.2
			C209.6,394.8,208.2,393.4,206.4,393.4"/>
		<path d="M206.4,393.9c-1.4,0-2.5,1.2-2.5,2.5c0,1.6,1.1,2.7,2.5,2.7v1.2c-2,0-3.7-1.6-3.7-3.8c0-2.1,1.7-3.7,3.7-3.7V393.9z
			 M206.4,400.3c2.2,0,3.8-1.7,3.8-3.8c0-2.1-1.6-3.7-3.8-3.7v1.1c1.6,0,2.7,1.2,2.7,2.5c0,1.6-1.2,2.7-2.7,2.7V400.3"/>
		<rect x="202.4" y="396.6" style="fill:#FFFFFF;" width="8.1" height="4.1"/>
		<rect x="206" y="395.6" width="1" height="4.2"/>
		
			<rect x="206" y="395.6" style="fill:none;stroke:#000000;stroke-width:0.72;stroke-linecap:round;stroke-linejoin:round;" width="1" height="4.2"/>
	</g>
	<g>
		<circle style="fill:#070102;stroke:#FFFFFF;stroke-width:0.5;" cx="85.5" cy="560.7" r="2.6"/>
	</g>
	<g>
		<g>
			<line style="fill:none;stroke:#000000;stroke-width:1.3;" x1="78.5" y1="758.3" x2="92.4" y2="758.3"/>
		</g>
		<g>
			<line style="fill:none;stroke:#000000;stroke-width:1.3;" x1="81.4" y1="760.5" x2="89.5" y2="760.5"/>
		</g>
		<g>
			<line style="fill:none;stroke:#000000;stroke-width:1.3;" x1="87.9" y1="762.6" x2="83" y2="762.6"/>
		</g>
	</g>
	<path style="fill:none;stroke:#000000;stroke-width:0.5;stroke-miterlimit:10;" d="M147.5,347c-2,0-3.8-1.4-3.8-3.2
		c0-1.8,1.7-3.2,3.8-3.2l61,6.4c2,0,3.8-1.4,3.8-3.2c0-1.8-1.7-3.2-3.8-3.2L147.5,347z"/>
	<path style="fill:none;stroke:#000000;stroke-width:0.5;stroke-miterlimit:10;" d="M147.5,492.1c-2,0-3.8-1.4-3.8-3.2
		c0-1.8,1.7-3.2,3.8-3.2l61,6.4c2,0,3.8-1.4,3.8-3.2c0-1.8-1.7-3.2-3.8-3.2L147.5,492.1z"/>
	<rect x="71.3" y="366.6" style="fill:#FFFFFF;" width="28.1" height="7.1"/>
	<g>
		<text transform="matrix(1 0 0 1 75.7376 371.9337)" style="font-family:'FZLTHJW--GB1-0'; font-size:6px;">R 0.35</text>
	</g>
	<rect x="71.3" y="229.9" style="fill:#FFFFFF;" width="28.1" height="7.1"/>
	<g>
		<text transform="matrix(1 0 0 1 75.7376 235.2671)" style="font-family:'FZLTHJW--GB1-0'; font-size:6px;">R 0.35</text>
	</g>
	<rect x="135.7" y="366.6" style="fill:#FFFFFF;" width="28.1" height="7.1"/>
	<g>
		<text transform="matrix(1 0 0 1 140.3718 371.9336)" style="font-family:'FZLTHJW--GB1-0'; font-size:6px;">P 0.35</text>
	</g>
	<rect x="192.4" y="366.6" style="fill:#FFFFFF;" width="28.1" height="7.1"/>
	<g>
		<text transform="matrix(1 0 0 1 197.0302 371.9336)" style="font-family:'FZLTHJW--GB1-0'; font-size:6px;">V 0.35</text>
	</g>
	<rect x="135.7" y="366.6" style="fill:#FFFFFF;" width="28.1" height="7.1"/>
	<g>
		<text transform="matrix(1 0 0 1 140.3718 371.9336)" style="font-family:'FZLTHJW--GB1-0'; font-size:6px;">P 0.35</text>
	</g>
	<rect x="192.4" y="366.6" style="fill:#FFFFFF;" width="28.1" height="7.1"/>
	<g>
		<text transform="matrix(1 0 0 1 197.0302 371.9336)" style="font-family:'FZLTHJW--GB1-0'; font-size:6px;">V 0.35</text>
	</g>
	<rect x="135.7" y="466.2" style="fill:#FFFFFF;" width="28.1" height="7.1"/>
	<g>
		<text transform="matrix(1 0 0 1 140.3718 471.5781)" style="font-family:'FZLTHJW--GB1-0'; font-size:6px;">P 0.35</text>
	</g>
	<rect x="192.4" y="466.2" style="fill:#FFFFFF;" width="28.1" height="7.1"/>
	<g>
		<text transform="matrix(1 0 0 1 197.0302 471.5781)" style="font-family:'FZLTHJW--GB1-0'; font-size:6px;">V 0.35</text>
	</g>
	<rect x="135.7" y="466.2" style="fill:#FFFFFF;" width="28.1" height="7.1"/>
	<g>
		<text transform="matrix(1 0 0 1 140.3718 471.5781)" style="font-family:'FZLTHJW--GB1-0'; font-size:6px;">P 0.35</text>
	</g>
	<rect x="192.4" y="466.2" style="fill:#FFFFFF;" width="28.1" height="7.1"/>
	<g>
		<text transform="matrix(1 0 0 1 197.0302 471.5781)" style="font-family:'FZLTHJW--GB1-0'; font-size:6px;">V 0.35</text>
	</g>
	<g>
		<rect x="137.5" y="167.6" style="fill:none;" width="81.1" height="36.9"/>
		<text transform="matrix(1 0 0 1 139.0735 172.8055)" style="enable-background:new    ;"><tspan x="0" y="0" style="font-family:'FZLTHJW--GB1-0'; font-size:6px;">Refer to the circuit diagram </tspan><tspan x="4.7" y="7.2" style="font-family:'FZLTHJW--GB1-0'; font-size:6px;">of body network system</tspan></text>
	</g>
	<path style="fill:none;stroke:#000000;stroke-width:0.5;stroke-linecap:round;stroke-linejoin:round;" d="M212.1,731.7l-0.7,2.1
		c0,0-0.7,2.5-4,2.6h-27.1l0,0l-2.3,2.7l-2.3-2.7c-0.1,0-0.1,0-0.2,0h-26.6h-0.2c-3.3-0.1-4-2.6-4-2.6l-0.7-2.1"/>
	<rect x="130.9" y="740.6" style="fill:none;" width="94.3" height="28.9"/>
	<text transform="matrix(1 0 0 1 135.4989 745.7456)" style="enable-background:new    ;"><tspan x="0" y="0" style="font-family:'FZLTHJW--GB1-0'; font-size:6px;">Refer to the circuit diagram of </tspan><tspan x="-0.5" y="7.2" style="font-family:'FZLTHJW--GB1-0'; font-size:6px;">smart access network system</tspan></text>
	<text transform="matrix(1 0 0 1 143.2584 409.201)" style="font-family:'FZLTHJW--GB1-0'; font-size:4px;">CAN_H</text>
	<text transform="matrix(1 0 0 1 72.1397 409.201)" style="font-family:'FZLTHJW--GB1-0'; font-size:4px;">Constant power</text>
	<text transform="matrix(1 0 0 1 81.4991 428.9827)" style="font-family:'FZLTHJW--GB1-0'; font-size:4px;">GND</text>
	<text transform="matrix(1 0 0 1 200.3034 409.201)" style="font-family:'FZLTHJW--GB1-0'; font-size:4px;">CAN_L</text>
	<text transform="matrix(1 0 0 1 143.2584 428.9825)" style="font-family:'FZLTHJW--GB1-0'; font-size:4px;">CAN_H</text>
	<text transform="matrix(1 0 0 1 200.3034 428.9825)" style="font-family:'FZLTHJW--GB1-0'; font-size:4px;">CAN_L</text>
	<g>
		<g>
			<rect x="75.3" y="765.1" style="fill:#FFFFFF;" width="20.3" height="8.2"/>
			
				<rect x="75.7" y="765.5" style="fill:#FFFFFF;stroke:#000000;stroke-width:0.25;stroke-linecap:round;stroke-linejoin:round;" width="19.7" height="7.6"/>
		</g>
	</g>
	<rect x="71.5" y="466.2" style="fill:#FFFFFF;" width="28.1" height="7.1"/>
	<g>
		<text transform="matrix(1 0 0 1 76.1124 471.6216)" style="font-family:'FZLTHJW--GB1-0'; font-size:6px;">B 0.35</text>
	</g>
	<rect x="71.5" y="653.3" style="fill:#FFFFFF;" width="28.1" height="7.1"/>
	<g>
		<text transform="matrix(1 0 0 1 76.1124 658.6713)" style="font-family:'FZLTHJW--GB1-0'; font-size:6px;">B 0.75</text>
	</g>
	<g>
		<text transform="matrix(1 0 0 1 113.9518 419.4782)" style="fill:#0459A1; font-family:'FZLTHJW--GB1-0'; font-size:6px;">Instrument panel cluster</text>
	</g>
	<g>
		<rect x="91" y="558.1" style="fill:#FFFFFF;stroke:#000000;stroke-width:0.25;" width="24.3" height="6.9"/>
		<text transform="matrix(1 0 0 1 91.4928 563.313)" style="font-family:'FZLTHJW--GB1-0'; font-size:6px;">SP3920</text>
	</g>
	<g id="_x30_2-上针脚_3_">
		<line style="fill:none;stroke:#000000;stroke-width:0.6;stroke-linejoin:round;" x1="149.8" y1="438.8" x2="149.8" y2="430.6"/>
		<path style="fill:#FFFFFF;" d="M149.7,441.9c-1.7,0-3-1.4-3-3c0-1.8,1.4-3.2,3-3.2c1.8,0,3.2,1.4,3.2,3.2
			C152.9,440.5,151.5,441.9,149.7,441.9"/>
		<path d="M149.7,442.5c-2,0-3.7-1.6-3.7-3.7c0-2.2,1.7-3.8,3.7-3.8v1.2c-1.4,0-2.5,1.1-2.5,2.7c0,1.3,1.1,2.5,2.5,2.5V442.5z
			 M149.7,435v1.2c1.5,0,2.7,1.1,2.7,2.7c0,1.3-1.1,2.5-2.7,2.5v1.1c2.2,0,3.8-1.6,3.8-3.7S151.9,435,149.7,435"/>
		<rect x="145.7" y="434.6" style="fill:#FFFFFF;" width="8.1" height="4.1"/>
		<rect x="149.3" y="435.5" width="1" height="4.2"/>
		
			<rect x="149.3" y="435.5" style="fill:none;stroke:#000000;stroke-width:0.72;stroke-linecap:round;stroke-linejoin:round;" width="1" height="4.2"/>
	</g>
	<g id="_x30_2-上针脚_6_">
		<line style="fill:none;stroke:#000000;stroke-width:0.6;stroke-linejoin:round;" x1="206.5" y1="438.8" x2="206.5" y2="430.6"/>
		<path style="fill:#FFFFFF;" d="M206.4,441.9c-1.7,0-3-1.4-3-3c0-1.8,1.4-3.2,3-3.2c1.8,0,3.2,1.4,3.2,3.2
			C209.6,440.5,208.2,441.9,206.4,441.9"/>
		<path d="M206.4,442.5c-2,0-3.7-1.6-3.7-3.7c0-2.2,1.7-3.8,3.7-3.8v1.2c-1.4,0-2.5,1.1-2.5,2.7c0,1.3,1.1,2.5,2.5,2.5V442.5z
			 M206.4,435v1.2c1.5,0,2.7,1.1,2.7,2.7c0,1.3-1.1,2.5-2.7,2.5v1.1c2.2,0,3.8-1.6,3.8-3.7S208.6,435,206.4,435"/>
		<rect x="202.4" y="434.6" style="fill:#FFFFFF;" width="8.1" height="4.1"/>
		<rect x="206" y="435.5" width="1" height="4.2"/>
		
			<rect x="206" y="435.5" style="fill:none;stroke:#000000;stroke-width:0.72;stroke-linecap:round;stroke-linejoin:round;" width="1" height="4.2"/>
	</g>
</g>
<g id="图层_2_00000008863127911039460880000003506458062754261695_">
	<g id="保险丝名称">
		<g>
			<g>
				<text transform="matrix(1 0 0 1 93.2405 163.7855)" style="fill:#005EAD; font-family:'FZLTHJW--GB1-0'; font-size:6px;">5A</text>
			</g>
			<g>
				<text transform="matrix(1 0 0 1 93.0368 157.1672)" style="fill:#005EAD; font-family:'FZLTHJW--GB1-0'; font-size:6px;">F2/05</text>
			</g>
		</g>
	</g>
	<g id="保险丝名称_1_">
		<g>
			<g>
				<text transform="matrix(1 0 0 1 92.0368 191.6678)" style="fill:#005EAD; font-family:'FZLTHJW--GB1-0'; font-size:6px;">G82</text>
			</g>
		</g>
	</g>
	<g id="保险丝名称_2_">
		<g>
			<g>
				<text transform="matrix(1 0 0 1 89.9232 401.6016)" style="fill:#005EAD; font-family:'FZLTHJW--GB1-0'; font-size:6px;">G01_1</text>
			</g>
		</g>
	</g>
	<g id="保险丝名称_72_">
		<g>
			<g>
				<rect x="118.1" y="147.8" style="fill:none;" width="51.8" height="29.8"/>
				<text transform="matrix(1 0 0 1 118.1153 152.9562)" style="enable-background:new    ;"><tspan x="0" y="0" style="fill:#005EAD; font-family:'FZLTHJW--GB1-0'; font-size:6px;">Instrument panel </tspan><tspan x="0" y="7.2" style="fill:#005EAD; font-family:'FZLTHJW--GB1-0'; font-size:6px;">fuse box</tspan></text>
			</g>
		</g>
	</g>
	<g id="保险丝名称_7_">
		<g>
			<g>
				<text transform="matrix(1 0 0 1 156.612 401.6016)" style="fill:#005EAD; font-family:'FZLTHJW--GB1-0'; font-size:6px;">G01_1</text>
			</g>
		</g>
	</g>
	<g id="保险丝名称_8_">
		<g>
			<g>
				<text transform="matrix(1 0 0 1 212.3298 401.6016)" style="fill:#005EAD; font-family:'FZLTHJW--GB1-0'; font-size:6px;">G01_1</text>
			</g>
		</g>
	</g>
	<g>
		<g>
			<g>
				<text transform="matrix(1 0 0 1 77.1788 770.9814)" style="fill:#005EAD; font-family:'FZLTHJW--GB1-0'; font-size:6px;">Eg02</text>
			</g>
		</g>
	</g>
	<g>
		<text transform="matrix(1 0 0 1 104.3595 191.668)" style="fill:#005EAD; font-family:'FZLTHJW--GB1-0'; font-size:6px;">-6</text>
	</g>
	<g>
		<text transform="matrix(1 0 0 1 109.2772 401.6016)" style="fill:#005EAD; font-family:'FZLTHJW--GB1-0'; font-size:6px;">-4</text>
	</g>
	<g id="保险丝名称_3_">
		<g>
			<g>
				<text transform="matrix(1 0 0 1 89.9232 437.6)" style="fill:#005EAD; font-family:'FZLTHJW--GB1-0'; font-size:6px;">G01_1</text>
			</g>
		</g>
	</g>
	<g>
		<text transform="matrix(1 0 0 1 109.2772 437.6)" style="fill:#005EAD; font-family:'FZLTHJW--GB1-0'; font-size:6px;">-8</text>
	</g>
	<g id="保险丝名称_9_">
		<g>
			<g>
				<text transform="matrix(1 0 0 1 154.2231 437.6)" style="fill:#005EAD; font-family:'FZLTHJW--GB1-0'; font-size:6px;">G01_1</text>
			</g>
		</g>
	</g>
	<g>
		<text transform="matrix(1 0 0 1 173.5771 437.6)" style="fill:#005EAD; font-family:'FZLTHJW--GB1-0'; font-size:6px;">-5</text>
	</g>
	<g id="保险丝名称_14_">
		<g>
			<g>
				<text transform="matrix(1 0 0 1 210.8815 437.6)" style="fill:#005EAD; font-family:'FZLTHJW--GB1-0'; font-size:6px;">G01_1</text>
			</g>
		</g>
	</g>
	<g>
		<text transform="matrix(1 0 0 1 230.2355 437.6)" style="fill:#005EAD; font-family:'FZLTHJW--GB1-0'; font-size:6px;">-1</text>
	</g>
	<g>
		<text transform="matrix(1 0 0 1 175.7888 401.6016)" style="fill:#005EAD; font-family:'FZLTHJW--GB1-0'; font-size:6px;">-2</text>
	</g>
	<g>
		<text transform="matrix(1 0 0 1 231.6738 401.6016)" style="fill:#005EAD; font-family:'FZLTHJW--GB1-0'; font-size:6px;">-3</text>
	</g>
</g>
</svg>
